<svg xmlns="http://www.w3.org/2000/svg" width="20" height="20" viewBox="0 0 20 20" fill="none">
  <mask id="mask0_408_1758" style="mask-type:alpha" maskUnits="userSpaceOnUse" x="0" y="0" width="20" height="20">
    <rect width="20" height="20" fill="#D9D9D9"/>
  </mask>
  <g mask="url(#mask0_408_1758)">
    <path d="M5.25 18C4.625 18 4.09375 17.7812 3.65625 17.3438C3.21875 16.9062 3 16.375 3 15.75V4.25C3 3.625 3.21875 3.09375 3.65625 2.65625C4.09375 2.21875 4.625 2 5.25 2H12.5C12.9125 2 13.2656 2.14688 13.5594 2.44063C13.8531 2.73438 14 3.0875 14 3.5V13.5C14 13.9125 13.8531 14.2656 13.5594 14.5594C13.2656 14.8531 12.9125 15 12.5 15H5.25C5.0375 15 4.85938 15.0764 4.71563 15.2292C4.57188 15.3819 4.5 15.559 4.5 15.7604C4.5 15.9618 4.57188 16.1354 4.71563 16.2812C4.85938 16.4271 5.0375 16.5 5.25 16.5H15.5V4.25C15.5 4.0375 15.5715 3.85937 15.7144 3.71562C15.8573 3.57187 16.0344 3.5 16.2456 3.5C16.4569 3.5 16.6354 3.57187 16.7812 3.71562C16.9271 3.85937 17 4.0375 17 4.25V16.5C17 16.9125 16.8531 17.2656 16.5594 17.5594C16.2656 17.8531 15.9125 18 15.5 18H5.25ZM7.5 13.5H12.5V3.5H7.5V13.5ZM6 13.5V3.5H5.25C5.0375 3.5 4.85938 3.57639 4.71563 3.72917C4.57188 3.88194 4.5 4.05556 4.5 4.25V13.6458C4.61111 13.6042 4.72824 13.5694 4.8514 13.5417C4.97453 13.5139 5.1074 13.5 5.25 13.5H6Z" fill="#C3CCDD"/>
  </g>
</svg>