<svg xmlns="http://www.w3.org/2000/svg" width="68" height="68" viewBox="0 0 68 68" fill="none">
  <g opacity="0.44">
    <path d="M39.8904 4.25C40.3402 4.25001 40.7785 4.39282 41.1421 4.65784C41.5056 4.92287 41.7757 5.29644 41.9134 5.72475L44.2509 12.988C45.2326 13.4683 46.1719 14.008 47.0686 14.6157L54.5316 13.0093C54.9716 12.9153 55.4301 12.9634 55.841 13.1468C56.2519 13.3301 56.5941 13.6391 56.8181 14.0293L62.7086 24.225C62.9335 24.615 63.0288 25.0663 62.9807 25.5139C62.9326 25.9615 62.7435 26.3823 62.4409 26.7155L57.3196 32.368C57.3942 33.4519 57.3942 34.5396 57.3196 35.6235L62.4409 41.2845C62.7435 41.6177 62.9326 42.0385 62.9807 42.4861C63.0288 42.9337 62.9335 43.385 62.7086 43.775L56.8181 53.975C56.5934 54.3644 56.251 54.6725 55.8402 54.8551C55.4293 55.0376 54.9712 55.0851 54.5316 54.9907L47.0686 53.3843C46.1761 53.9878 45.2326 54.5317 44.2551 55.012L41.9134 62.2752C41.7757 62.7036 41.5056 63.0771 41.1421 63.3422C40.7785 63.6072 40.3402 63.75 39.8904 63.75H28.1093C27.6595 63.75 27.2212 63.6072 26.8576 63.3422C26.4941 63.0771 26.224 62.7036 26.0863 62.2752L23.7531 55.0163C22.774 54.5375 21.8296 53.9907 20.9268 53.38L13.4681 54.9907C13.0281 55.0847 12.5696 55.0365 12.1587 54.8532C11.7478 54.6699 11.4057 54.3609 11.1816 53.9708L5.2911 43.775C5.06617 43.385 4.97089 42.9337 5.01901 42.4861C5.06713 42.0385 5.25617 41.6177 5.55885 41.2845L10.6801 35.6235C10.6059 34.5424 10.6059 33.4576 10.6801 32.3765L5.55885 26.7155C5.25617 26.3823 5.06713 25.9615 5.01901 25.5139C4.97089 25.0663 5.06617 24.615 5.2911 24.225L11.1816 14.025C11.4063 13.6356 11.7487 13.3275 12.1595 13.1449C12.5704 12.9624 13.0285 12.9149 13.4681 13.0093L20.9268 14.62C21.8278 14.0122 22.7714 13.464 23.7531 12.9838L26.0906 5.72475C26.2278 5.29781 26.4966 4.92523 26.8584 4.66034C27.2203 4.39544 27.6567 4.25181 28.1051 4.25H39.8861H39.8904ZM38.3349 8.5H29.6649L27.2509 16.0097L25.6231 16.8045C24.8229 17.1961 24.0504 17.642 23.3111 18.139L21.8066 19.159L14.0886 17.493L9.7536 25.007L15.0448 30.8635L14.9173 32.6655C14.8563 33.5541 14.8563 34.4459 14.9173 35.3345L15.0448 37.1365L9.7451 42.993L14.0843 50.507L21.8024 48.8452L23.3069 49.861C24.0462 50.358 24.8186 50.8039 25.6188 51.1955L27.2466 51.9902L29.6649 59.5H38.3433L40.7659 51.986L42.3894 51.1955C43.1887 50.8048 43.9598 50.3589 44.6971 49.861L46.1973 48.8452L53.9196 50.507L58.2546 42.993L52.9591 37.1365L53.0866 35.3345C53.1479 34.4445 53.1479 33.5513 53.0866 32.6612L52.9591 30.8593L58.2589 25.007L53.9196 17.493L46.1973 19.1505L44.6971 18.139C43.9599 17.641 43.1887 17.195 42.3894 16.8045L40.7659 16.014L38.3391 8.5H38.3349ZM33.9998 21.25C37.3814 21.25 40.6244 22.5933 43.0155 24.9844C45.4066 27.3755 46.7499 30.6185 46.7499 34C46.7499 37.3815 45.4066 40.6245 43.0155 43.0156C40.6244 45.4067 37.3814 46.75 33.9998 46.75C30.6183 46.75 27.3753 45.4067 24.9842 43.0156C22.5931 40.6245 21.2498 37.3815 21.2498 34C21.2498 30.6185 22.5931 27.3755 24.9842 24.9844C27.3753 22.5933 30.6183 21.25 33.9998 21.25ZM33.9998 25.5C31.7455 25.5 29.5835 26.3955 27.9894 27.9896C26.3954 29.5837 25.4998 31.7457 25.4998 34C25.4998 36.2543 26.3954 38.4163 27.9894 40.0104C29.5835 41.6045 31.7455 42.5 33.9998 42.5C36.2542 42.5 38.4162 41.6045 40.0103 40.0104C41.6043 38.4163 42.4999 36.2543 42.4999 34C42.4999 31.7457 41.6043 29.5837 40.0103 27.9896C38.4162 26.3955 36.2542 25.5 33.9998 25.5Z" fill="#C3CCDD"/>
  </g>
</svg>