<svg xmlns="http://www.w3.org/2000/svg" width="86" height="86" viewBox="0 0 86 86" fill="none">
  <g opacity="0.44">
    <mask id="mask0_349_327" style="mask-type:alpha" maskUnits="userSpaceOnUse" x="0" y="0" width="86" height="86">
      <rect width="86" height="86" fill="#D9D9D9"/>
    </mask>
    <g mask="url(#mask0_349_327)">
      <path d="M10.7498 37.0877C10.7498 41.5669 12.3175 45.3742 15.4529 48.5096C18.5883 51.645 22.3956 53.2127 26.8748 53.2127H28.5769L26.2477 50.8835C25.5908 50.2266 25.2474 49.4651 25.2175 48.5992C25.1877 47.7332 25.4869 46.9717 26.1153 46.3148C26.8008 45.6578 27.5815 45.3294 28.4575 45.3294C29.3334 45.3294 30.0898 45.6578 30.7269 46.3148L38.6102 54.1981C39.2672 54.8333 39.5956 55.5744 39.5956 56.4214C39.5956 57.2684 39.2672 58.0203 38.6102 58.6773L30.7269 66.5606C30.0699 67.2176 29.3234 67.5311 28.4873 67.5012C27.6512 67.4714 26.9047 67.128 26.2477 66.471C25.5908 65.8141 25.2623 65.0513 25.2623 64.1826C25.2623 63.3139 25.5908 62.5538 26.2477 61.9023L28.4873 59.6627H26.8748C20.604 59.6627 15.2738 57.4679 10.8842 53.0783C6.4946 48.6887 4.2998 43.3585 4.2998 37.0877C4.2998 30.7989 6.49012 25.4643 10.8707 21.0836C15.2514 16.703 20.5861 14.5127 26.8748 14.5127H37.6248C38.5386 14.5127 39.3045 14.8199 39.9226 15.4344C40.5407 16.049 40.8498 16.8104 40.8498 17.7188C40.8498 18.6272 40.5407 19.395 39.9226 20.0221C39.3045 20.6492 38.5386 20.9627 37.6248 20.9627H26.8748C22.4136 20.9627 18.6107 22.5349 15.4664 25.6793C12.322 28.8236 10.7498 32.6264 10.7498 37.0877ZM50.5248 66.1127C49.6111 66.1127 48.8451 65.8036 48.227 65.1855C47.6089 64.5674 47.2998 63.8014 47.2998 62.8877V47.8377C47.2998 46.9239 47.6089 46.158 48.227 45.5399C48.8451 44.9218 49.6111 44.6127 50.5248 44.6127H74.1748C75.0885 44.6127 75.8545 44.9218 76.4726 45.5399C77.0907 46.158 77.3998 46.9239 77.3998 47.8377V62.8877C77.3998 63.8014 77.0907 64.5674 76.4726 65.1855C75.8545 65.8036 75.0885 66.1127 74.1748 66.1127H50.5248ZM50.5248 36.0127C49.6111 36.0127 48.8451 35.7036 48.227 35.0855C47.6089 34.4674 47.2998 33.7014 47.2998 32.7877V17.7377C47.2998 16.8239 47.6089 16.058 48.227 15.4399C48.8451 14.8218 49.6111 14.5127 50.5248 14.5127H74.1748C75.0885 14.5127 75.8545 14.8218 76.4726 15.4399C77.0907 16.058 77.3998 16.8239 77.3998 17.7377V32.7877C77.3998 33.7014 77.0907 34.4674 76.4726 35.0855C75.8545 35.7036 75.0885 36.0127 74.1748 36.0127H50.5248ZM53.7498 29.5627H70.9498V20.9627H53.7498V29.5627Z" fill="#C3CCDD"/>
    </g>
  </g>
</svg>