<svg xmlns="http://www.w3.org/2000/svg" width="86" height="86" viewBox="0 0 86 86" fill="none">
  <g opacity="0.5">
    <mask id="mask0_424_45" style="mask-type:alpha" maskUnits="userSpaceOnUse" x="0" y="0" width="86" height="86">
      <rect width="86" height="86" fill="#D9D9D9"/>
    </mask>
    <g mask="url(#mask0_424_45)">
      <path d="M8.59998 62.3502V23.6502C8.59998 21.8764 9.21213 20.358 10.4364 19.0949C11.6607 17.8318 13.1986 17.2002 15.05 17.2002H70.95C72.8014 17.2002 74.3392 17.8318 75.5635 19.0949C76.7878 20.358 77.4 21.8764 77.4 23.6502V62.3502C77.4 64.1239 76.7878 65.6424 75.5635 66.9055C74.3392 68.1686 72.8014 68.8002 70.95 68.8002H15.05C13.1986 68.8002 11.6607 68.1686 10.4364 66.9055C9.21213 65.6424 8.59998 64.1239 8.59998 62.3502ZM15.05 32.2502H23.65V23.6502H15.05V32.2502ZM30.1 32.2502H70.95V23.6502H30.1V32.2502ZM30.1 47.3002H70.95V38.7002H30.1V47.3002ZM30.1 62.3502H70.95V53.7502H30.1V62.3502ZM15.05 62.3502H23.65V53.7502H15.05V62.3502ZM15.05 47.3002H23.65V38.7002H15.05V47.3002Z" fill="#C3CCDD"/>
    </g>
  </g>
</svg>