<svg xmlns="http://www.w3.org/2000/svg" width="86" height="86" viewBox="0 0 86 86" fill="none">
  <g opacity="0.44">
    <mask id="mask0_619_233" style="mask-type:alpha" maskUnits="userSpaceOnUse" x="0" y="0" width="86" height="86">
      <rect width="86" height="86" transform="matrix(-1 0 0 1 86 0)" fill="#D9D9D9"/>
    </mask>
    <g mask="url(#mask0_619_233)">
      <path d="M62.4395 75.1602L70.8726 66.727C71.5214 66.0783 71.8457 65.3305 71.8457 64.4835C71.8457 63.6365 71.5172 62.8954 70.8603 62.2602L62.4271 53.827C61.7784 53.1783 61.0305 52.854 60.1836 52.854C59.3366 52.854 58.5955 53.1824 57.9603 53.8394C57.3033 54.4963 56.9749 55.2578 56.9749 56.1238C56.9749 56.9897 57.3033 57.7512 57.9603 58.4081L60.7374 61.2748H16.1249C15.2111 61.2748 14.4452 61.582 13.8271 62.1965C13.2089 62.8111 12.8999 63.5725 12.8999 64.4809C12.8999 65.3893 13.2089 66.1571 13.8271 66.7842C14.4452 67.4113 15.2111 67.7248 16.1249 67.7248H60.7374L57.9603 70.5915C57.3033 71.2484 56.9749 72.0099 56.9749 72.8758C56.9749 73.7418 57.3033 74.5033 57.9603 75.1602C58.6172 75.8172 59.3692 76.1456 60.2162 76.1456C61.0632 76.1456 61.8042 75.8172 62.4395 75.1602ZM63.9624 47.2998C65.3061 47.2998 66.4483 46.8295 67.3889 45.8889C68.3296 44.9482 68.7999 43.8061 68.7999 42.4623V9.1373C68.7999 7.79355 68.3296 6.65137 67.3889 5.71074C66.4483 4.77012 65.3061 4.2998 63.9624 4.2998H22.0374C20.6936 4.2998 19.5514 4.77012 18.6108 5.71074C17.6702 6.65137 17.1999 7.79355 17.1999 9.1373V42.4623C17.1999 43.8061 17.6702 44.9482 18.6108 45.8889C19.5514 46.8295 20.6936 47.2998 22.0374 47.2998H63.9624ZM62.3499 22.5748H46.2249V10.7498H62.3499V22.5748ZM39.7749 22.5748H23.6499V10.7498H39.7749V22.5748ZM46.2249 40.8498V29.0248H62.3499V40.8498H46.2249ZM39.7749 40.8498H23.6499V29.0248H39.7749V40.8498Z" fill="#C3CCDD"/>
    </g>
  </g>
</svg>