<svg xmlns="http://www.w3.org/2000/svg" width="86" height="86" viewBox="0 0 86 86" fill="none">
  <g opacity="0.44">
    <mask id="mask0_467_133" style="mask-type:alpha" maskUnits="userSpaceOnUse" x="0" y="0" width="86" height="86">
      <rect width="86" height="86" fill="#D9D9D9"/>
    </mask>
    <g mask="url(#mask0_467_133)">
      <path d="M29.0254 51.5996H40.4921C41.0296 50.4052 41.6716 49.2704 42.4181 48.1954C43.1646 47.1204 43.9858 46.1052 44.8816 45.1496H29.0254C28.1116 45.1496 27.3457 45.4568 26.7276 46.0713C26.1095 46.6859 25.8004 47.4473 25.8004 48.3557C25.8004 49.2641 26.1095 50.0319 26.7276 50.659C27.3457 51.2861 28.1116 51.5996 29.0254 51.5996ZM29.0254 64.4996H39.1483C38.9244 63.4246 38.7788 62.3496 38.7116 61.2746C38.6444 60.1996 38.6705 59.1246 38.79 58.0496H29.0254C28.1116 58.0496 27.3457 58.3568 26.7276 58.9713C26.1095 59.5859 25.8004 60.3473 25.8004 61.2557C25.8004 62.1641 26.1095 62.9319 26.7276 63.559C27.3457 64.1861 28.1116 64.4996 29.0254 64.4996ZM19.3504 77.3996C17.5766 77.3996 16.0582 76.768 14.7951 75.5049C13.532 74.2418 12.9004 72.7234 12.9004 70.9496V15.0496C12.9004 13.2759 13.532 11.7574 14.7951 10.4943C16.0582 9.23117 17.5766 8.59961 19.3504 8.59961H44.6129C45.4623 8.59961 46.2718 8.74891 47.0416 9.04753C47.8113 9.34614 48.5247 9.82391 49.1816 10.4809L62.6191 23.9184C63.2761 24.5753 63.7539 25.2887 64.0525 26.0584C64.3511 26.8282 64.5004 27.6377 64.5004 28.4871V39.1475C63.4254 38.9086 62.3504 38.7593 61.2754 38.6996C60.2004 38.6399 59.1254 38.6697 58.0504 38.7892V30.0996H46.2254C45.3116 30.0996 44.5457 29.7905 43.9276 29.1724C43.3095 28.5543 43.0004 27.7884 43.0004 26.8746V15.0496H19.3504V70.9496H41.5671C42.2837 72.2038 43.1198 73.3833 44.0754 74.4882C45.0309 75.593 46.1059 76.5635 47.3004 77.3996H19.3504ZM60.1802 68.7996C62.5826 68.7996 64.6198 67.9702 66.2921 66.3114C67.9643 64.6527 68.8004 62.6221 68.8004 60.2198C68.8004 57.8174 67.9691 55.7802 66.3064 54.1079C64.6437 52.4357 62.6084 51.5996 60.2004 51.5996C58.2893 51.5996 56.3782 52.3163 54.4671 53.7496C52.556 55.1829 51.6004 57.3329 51.6004 60.1996C51.6004 62.6076 52.4298 64.6429 54.0886 66.3056C55.7473 67.9683 57.7779 68.7996 60.1802 68.7996ZM79.4608 79.46C78.8039 80.117 78.0424 80.4454 77.1764 80.4454C76.3105 80.4454 75.549 80.117 74.8921 79.46L68.3525 72.8309C67.158 73.6072 65.8731 74.2045 64.4977 74.6225C63.1223 75.0406 61.7048 75.2496 60.2452 75.2496C56.0348 75.2496 52.4664 73.7864 49.54 70.86C46.6136 67.9336 45.1504 64.3802 45.1504 60.1996C45.1504 56.0191 46.6136 52.4656 49.54 49.5392C52.4664 46.6128 56.0198 45.1496 60.2004 45.1496C64.3809 45.1496 67.9344 46.6128 70.8608 49.5392C73.7872 52.4656 75.2504 56.0191 75.2504 60.1996C75.2504 61.6695 75.0414 63.0971 74.6233 64.4823C74.2053 65.8675 73.608 67.1572 72.8316 68.3517L79.4608 74.8913C80.1178 75.5482 80.4462 76.3097 80.4462 77.1757C80.4462 78.0416 80.1178 78.8031 79.4608 79.46Z" fill="#C3CCDD"/>
    </g>
  </g>
</svg>