<svg xmlns="http://www.w3.org/2000/svg" width="86" height="86" viewBox="0 0 86 86" fill="none">
  <g opacity="0.4">
    <mask id="mask0_519_284" style="mask-type:alpha" maskUnits="userSpaceOnUse" x="0" y="0" width="86" height="86">
      <rect width="86" height="86" fill="#D9D9D9"/>
    </mask>
    <g mask="url(#mask0_519_284)">
      <path d="M53.0335 70.9496L59.4835 77.3996H23.6502C21.8764 77.3996 20.358 76.7681 19.0949 75.5049C17.8318 74.2418 17.2002 72.7234 17.2002 70.9496V15.0496C17.2002 13.2759 17.8318 11.7574 19.0949 10.4943C20.358 9.23117 21.8764 8.59961 23.6502 8.59961H48.9127C49.7727 8.59961 50.5849 8.74891 51.3494 9.04753C52.1138 9.34614 52.8108 9.82699 53.4404 10.4901L66.9189 23.9184C67.5759 24.5753 68.0537 25.288 68.3523 26.0565C68.6509 26.825 68.8002 27.623 68.8002 28.4507V68.4413C68.8002 70.5913 68.636 72.2038 68.3075 73.2788C67.979 74.3538 67.4863 75.1302 66.8294 75.6079L49.5398 58.3184C48.6439 58.9156 47.6287 59.3486 46.4939 59.6173C45.3592 59.8861 44.1946 60.0204 43.0002 60.0204C39.4169 60.0204 36.371 58.7663 33.8627 56.2579C31.3544 53.7496 30.1002 50.7038 30.1002 47.1204C30.1002 43.5371 31.3544 40.4913 33.8627 37.9829C36.371 35.4746 39.4169 34.2204 43.0002 34.2204C46.5835 34.2204 49.6294 35.4746 52.1377 37.9829C54.646 40.4913 55.9002 43.5371 55.9002 47.1204C55.9002 48.3149 55.7509 49.4944 55.4523 50.659C55.1537 51.8236 54.7057 52.8538 54.1085 53.7496L62.3502 61.9913V28.4871L48.9127 15.0496H23.6502V70.9496H53.0335ZM43.0002 53.5704C44.9113 53.5704 46.4641 52.8388 47.6585 51.3757C48.853 49.9125 49.4502 48.1954 49.4502 46.2246C49.4502 44.6121 48.8082 43.2833 47.5242 42.2382C46.2401 41.193 44.7321 40.6704 43.0002 40.6704C41.2682 40.6704 39.7603 41.193 38.4762 42.2382C37.1922 43.2833 36.5502 44.6121 36.5502 46.2246C36.5502 48.1954 37.1474 49.9125 38.3419 51.3757C39.5363 52.8388 41.0891 53.5704 43.0002 53.5704Z" fill="#C3CCDD"/>
    </g>
  </g>
</svg>