<svg xmlns="http://www.w3.org/2000/svg" width="20" height="20" viewBox="0 0 20 20" fill="none">
  <mask id="mask0_408_1788" style="mask-type:alpha" maskUnits="userSpaceOnUse" x="0" y="0" width="20" height="20">
    <rect width="20" height="20" fill="#D9D9D9"/>
  </mask>
  <g mask="url(#mask0_408_1788)">
    <path d="M2 14.5V5.5C2 5.0875 2.14236 4.73438 2.42708 4.44063C2.71181 4.14688 3.06944 4 3.5 4H16.5C16.9306 4 17.2882 4.14688 17.5729 4.44063C17.8576 4.73438 18 5.0875 18 5.5V14.5C18 14.9125 17.8576 15.2656 17.5729 15.5594C17.2882 15.8531 16.9306 16 16.5 16H3.5C3.06944 16 2.71181 15.8531 2.42708 15.5594C2.14236 15.2656 2 14.9125 2 14.5ZM3.5 7.5H5.5V5.5H3.5V7.5ZM7 7.5H16.5V5.5H7V7.5ZM7 11H16.5V9H7V11ZM7 14.5H16.5V12.5H7V14.5ZM3.5 14.5H5.5V12.5H3.5V14.5ZM3.5 11H5.5V9H3.5V11Z" fill="#C3CCDD"/>
  </g>
</svg>