<svg xmlns="http://www.w3.org/2000/svg" width="86" height="86" viewBox="0 0 86 86" fill="none">
  <g opacity="0.44">
    <mask id="mask0_408_1176" style="mask-type:alpha" maskUnits="userSpaceOnUse" x="0" y="0" width="86" height="86">
      <rect width="86" height="86" transform="matrix(1 0 0 -1 0 86)" fill="#D9D9D9"/>
    </mask>
    <g mask="url(#mask0_408_1176)">
      <path d="M10.7499 48.9123C10.7499 44.4331 12.3176 40.6258 15.4531 37.4904C18.5885 34.355 22.3958 32.7873 26.8749 32.7873H28.577L26.2478 35.1165C25.5909 35.7734 25.2475 36.5349 25.2176 37.4008C25.1878 38.2668 25.487 39.0283 26.1154 39.6852C26.8009 40.3422 27.5816 40.6706 28.4576 40.6706C29.3335 40.6706 30.09 40.3422 30.727 39.6852L38.6103 31.8019C39.2673 31.1667 39.5958 30.4256 39.5958 29.5786C39.5958 28.7316 39.2673 27.9797 38.6103 27.3227L30.727 19.4394C30.0701 18.7824 29.3235 18.4689 28.4874 18.4988C27.6513 18.5286 26.9048 18.872 26.2478 19.529C25.5909 20.1859 25.2624 20.9487 25.2624 21.8174C25.2624 22.6861 25.5909 23.4462 26.2478 24.0977L28.4874 26.3373H26.8749C20.6041 26.3373 15.2739 28.5321 10.8843 32.9217C6.49472 37.3113 4.29993 42.6415 4.29993 48.9123C4.29993 55.2011 6.49024 60.5357 10.8709 64.9164C15.2515 69.297 20.5862 71.4873 26.8749 71.4873H37.6249C38.5387 71.4873 39.3046 71.1801 39.9227 70.5656C40.5409 69.951 40.8499 69.1896 40.8499 68.2812C40.8499 67.3728 40.5409 66.605 39.9227 65.9779C39.3046 65.3508 38.5387 65.0373 37.6249 65.0373H26.8749C22.4137 65.0373 18.6109 63.4651 15.4665 60.3207C12.3221 57.1764 10.7499 53.3736 10.7499 48.9123ZM50.5249 19.8873C49.6112 19.8873 48.8452 20.1964 48.2271 20.8145C47.609 21.4326 47.2999 22.1986 47.2999 23.1123V38.1623C47.2999 39.0761 47.609 39.842 48.2271 40.4601C48.8452 41.0782 49.6112 41.3873 50.5249 41.3873H74.1749C75.0887 41.3873 75.8546 41.0782 76.4727 40.4601C77.0909 39.842 77.3999 39.0761 77.3999 38.1623V23.1123C77.3999 22.1986 77.0909 21.4326 76.4727 20.8145C75.8546 20.1964 75.0887 19.8873 74.1749 19.8873H50.5249ZM50.5249 49.9873C49.6112 49.9873 48.8452 50.2964 48.2271 50.9145C47.609 51.5326 47.2999 52.2986 47.2999 53.2123V68.2623C47.2999 69.1761 47.609 69.942 48.2271 70.5601C48.8452 71.1782 49.6112 71.4873 50.5249 71.4873H74.1749C75.0887 71.4873 75.8546 71.1782 76.4727 70.5601C77.0909 69.942 77.3999 69.1761 77.3999 68.2623V53.2123C77.3999 52.2986 77.0909 51.5326 76.4727 50.9145C75.8546 50.2964 75.0887 49.9873 74.1749 49.9873H50.5249ZM53.7499 56.4373H70.9499V65.0373H53.7499V56.4373Z" fill="#C3CCDD"/>
    </g>
  </g>
</svg>