<svg xmlns="http://www.w3.org/2000/svg" width="65" height="56" viewBox="0 0 65 56" fill="none">
  <path opacity="0.44" d="M43 34.4C40.0139 34.4 37.4757 33.3549 35.3854 31.2646C33.2951 29.1743 32.25 26.6361 32.25 23.65C32.25 20.6639 33.2951 18.1257 35.3854 16.0354C37.4757 13.9451 40.0139 12.9 43 12.9C45.9861 12.9 48.5243 13.9451 50.6146 16.0354C52.7049 18.1257 53.75 20.6639 53.75 23.65C53.75 26.6361 52.7049 29.1743 50.6146 31.2646C48.5243 33.3549 45.9861 34.4 43 34.4ZM24.725 55.9C23.8113 55.9 23.0453 55.5909 22.4272 54.9728C21.8091 54.3547 21.5 53.5888 21.5 52.675V50.2563C21.5 48.584 21.933 47.0611 22.799 45.6875C23.6649 44.3139 24.8146 43.2688 26.2479 42.5521C28.816 41.2979 31.5035 40.3424 34.3104 39.6854C37.1174 39.0285 40.0139 38.7 43 38.7C45.9861 38.7 48.8826 39.0285 51.6896 39.6854C54.4965 40.3424 57.184 41.2979 59.7521 42.5521C61.1854 43.2688 62.3351 44.3139 63.201 45.6875C64.067 47.0611 64.5 48.584 64.5 50.2563V52.675C64.5 53.5888 64.1909 54.3547 63.5728 54.9728C62.9547 55.5909 62.1888 55.9 61.275 55.9H24.725ZM28.0396 49.45H57.9604C56.1688 48.0764 54.0188 47.0163 51.5104 46.2698C49.0021 45.5233 46.1653 45.15 43 45.15C39.8347 45.15 36.9979 45.5233 34.4896 46.2698C31.9813 47.0163 29.8313 48.0764 28.0396 49.45ZM43 27.95C44.2183 27.95 45.2396 27.5379 46.0638 26.7138C46.8879 25.8896 47.3 24.8683 47.3 23.65C47.3 22.4317 46.8879 21.4104 46.0638 20.5863C45.2396 19.7621 44.2183 19.35 43 19.35C41.7817 19.35 40.7604 19.7621 39.9363 20.5863C39.1121 21.4104 38.7 22.4317 38.7 23.65C38.7 24.8683 39.1121 25.8896 39.9363 26.7138C40.7604 27.5379 41.7817 27.95 43 27.95ZM22.5786 33.325H3.25035C2.33762 33.325 1.56771 33.0178 0.940625 32.4033C0.313542 31.7887 0 31.0273 0 30.1189C0 29.2105 0.308704 28.4427 0.926112 27.8156C1.54358 27.1885 2.30868 26.875 3.22142 26.875H22.5497C23.4624 26.875 24.2323 27.1822 24.8594 27.7967C25.4865 28.4113 25.8 29.1727 25.8 30.0811C25.8 30.9895 25.4913 31.7573 24.8739 32.3844C24.2564 33.0115 23.4913 33.325 22.5786 33.325ZM35.4773 6.45H3.25089C2.3378 6.45 1.56771 6.14276 0.940625 5.52828C0.313542 4.91374 0 4.15228 0 3.2439C0 2.33547 0.308823 1.56771 0.926471 0.940625C1.54418 0.313542 2.30958 0 3.22267 0H35.4491C36.3622 0 37.1323 0.307241 37.7594 0.921723C38.3865 1.53626 38.7 2.29772 38.7 3.2061C38.7 4.11453 38.3912 4.88229 37.7735 5.50938C37.1558 6.13646 36.3904 6.45 35.4773 6.45ZM26.2479 19.8875H3.2405C2.32233 19.8875 1.55272 19.5803 0.931666 18.9658C0.310555 18.3512 0 17.5898 0 16.6814C0 15.773 0.310974 15.0052 0.932921 14.3781C1.55487 13.751 2.32552 13.4375 3.24489 13.4375H29.2042C28.4875 14.3931 27.8869 15.4017 27.4023 16.4634C26.9178 17.5252 26.533 18.6665 26.2479 19.8875Z" fill="#C3CCDD"/>
</svg>