<svg xmlns="http://www.w3.org/2000/svg" width="20" height="20" viewBox="0 0 20 20" fill="none">
  <mask id="mask0_408_1763" style="mask-type:alpha" maskUnits="userSpaceOnUse" x="0" y="0" width="20" height="20">
    <rect width="20" height="20" fill="#D9D9D9"/>
  </mask>
  <g mask="url(#mask0_408_1763)">
    <path d="M6.25 16.6253C4.7875 16.6253 3.54688 16.116 2.52813 15.0972C1.50937 14.0785 1 12.8378 1 11.3753C1 9.91699 1.51042 8.67741 2.53125 7.65658C3.55208 6.63574 4.79167 6.12533 6.25 6.12533H6.625L6.08333 5.58366C5.93056 5.43214 5.85417 5.25537 5.85417 5.05335C5.85417 4.85133 5.93056 4.67394 6.08333 4.52116C6.23611 4.36838 6.41319 4.29199 6.61458 4.29199C6.81597 4.29199 6.99306 4.36838 7.14583 4.52116L8.97917 6.35449C9.13194 6.50221 9.20833 6.67456 9.20833 6.87153C9.20833 7.06851 9.13194 7.24338 8.97917 7.39616L7.14583 9.20866C6.99768 9.36144 6.82176 9.43783 6.61806 9.43783C6.41435 9.43783 6.23279 9.36144 6.07338 9.20866C5.92724 9.05588 5.85764 8.88227 5.86458 8.68783C5.87153 8.49338 5.95139 8.31977 6.10417 8.16699L6.64583 7.62533H6.25C5.20833 7.62533 4.32292 7.98991 3.59375 8.71908C2.86458 9.44824 2.5 10.3337 2.5 11.3753C2.5 12.4128 2.86562 13.2972 3.59687 14.0285C4.32812 14.7597 5.2125 15.1253 6.25 15.1253H8.75C8.9625 15.1253 9.14062 15.1968 9.28438 15.3397C9.42813 15.4826 9.5 15.6597 9.5 15.8709C9.5 16.0822 9.42813 16.2607 9.28438 16.4066C9.14062 16.5524 8.9625 16.6253 8.75 16.6253H6.25ZM11.75 9.62533C11.5375 9.62533 11.3594 9.55345 11.2156 9.4097C11.0719 9.26595 11 9.08783 11 8.87533V5.37533C11 5.16283 11.0719 4.9847 11.2156 4.84095C11.3594 4.6972 11.5375 4.62533 11.75 4.62533H17.25C17.4625 4.62533 17.6406 4.6972 17.7844 4.84095C17.9281 4.9847 18 5.16283 18 5.37533V8.87533C18 9.08783 17.9281 9.26595 17.7844 9.4097C17.6406 9.55345 17.4625 9.62533 17.25 9.62533H11.75ZM11.75 16.6253C11.5375 16.6253 11.3594 16.5535 11.2156 16.4097C11.0719 16.266 11 16.0878 11 15.8753V12.3753C11 12.1628 11.0719 11.9847 11.2156 11.841C11.3594 11.6972 11.5375 11.6253 11.75 11.6253H17.25C17.4625 11.6253 17.6406 11.6972 17.7844 11.841C17.9281 11.9847 18 12.1628 18 12.3753V15.8753C18 16.0878 17.9281 16.266 17.7844 16.4097C17.6406 16.5535 17.4625 16.6253 17.25 16.6253H11.75ZM12.5 15.1253H16.5V13.1253H12.5V15.1253Z" fill="#C3CCDD"/>
  </g>
</svg>