<svg xmlns="http://www.w3.org/2000/svg" width="20" height="20" viewBox="0 0 20 20" fill="none">
  <mask id="mask0_349_112" style="mask-type:alpha" maskUnits="userSpaceOnUse" x="0" y="0" width="20" height="20">
    <rect width="20" height="20" fill="#D9D9D9"/>
  </mask>
  <g mask="url(#mask0_349_112)">
    <path d="M4.5 18C4.0875 18 3.73437 17.8531 3.44062 17.5594C3.14687 17.2656 3 16.9125 3 16.5V6.5C3 6.0875 3.14687 5.73438 3.44062 5.44063C3.73437 5.14688 4.0875 5 4.5 5H6C6 3.89333 6.39046 2.95 7.17138 2.17C7.95229 1.39 8.89674 1 10.0047 1C11.1127 1 12.0556 1.39 12.8333 2.17C13.6111 2.95 14 3.89333 14 5H15.5C15.9125 5 16.2656 5.14688 16.5594 5.44063C16.8531 5.73438 17 6.0875 17 6.5V16.5C17 16.9125 16.8531 17.2656 16.5594 17.5594C16.2656 17.8531 15.9125 18 15.5 18H4.5ZM4.5 16.5H15.5V6.5H4.5V16.5ZM7.5 5H12.5C12.5 4.30556 12.2569 3.71528 11.7708 3.22917C11.2847 2.74306 10.6944 2.5 10 2.5C9.30556 2.5 8.71528 2.74306 8.22917 3.22917C7.74306 3.71528 7.5 4.30556 7.5 5ZM10 12C11.0833 12 12.0347 11.6389 12.8542 10.9167C13.6736 10.1944 14.0833 9.41667 14.0833 8.58333C14.0833 8.38889 14 8.20833 13.8333 8.04167C13.6667 7.875 13.4653 7.79167 13.2292 7.79167C13.0347 7.79167 12.8611 7.85417 12.7083 7.97917C12.5556 8.10417 12.4444 8.27778 12.375 8.5C12.2222 9.01389 11.9214 9.43403 11.4726 9.76042C11.0238 10.0868 10.533 10.25 10 10.25C9.47222 10.25 8.98264 10.0868 8.53125 9.76042C8.07986 9.43403 7.78472 9.01389 7.64583 8.5C7.59028 8.30556 7.48264 8.13889 7.32292 8C7.16319 7.86111 6.97917 7.79167 6.77083 7.79167C6.53472 7.79167 6.33681 7.8689 6.17708 8.02338C6.01736 8.17785 5.9375 8.3645 5.9375 8.58333C5.9375 9.41667 6.34375 10.1944 7.15625 10.9167C7.96875 11.6389 8.91667 12 10 12Z" fill="#C3CCDD"/>
  </g>
</svg>