<svg xmlns="http://www.w3.org/2000/svg" width="20" height="20" viewBox="0 0 20 20" fill="none">
  <mask id="mask0_408_1778" style="mask-type:alpha" maskUnits="userSpaceOnUse" x="0" y="0" width="20" height="20">
    <rect width="20" height="20" transform="matrix(-1 0 0 1 20 0)" fill="#D9D9D9"/>
  </mask>
  <g mask="url(#mask0_408_1778)">
    <path d="M14.5208 17.4792L16.482 15.518C16.6329 15.3671 16.7083 15.1932 16.7083 14.9962C16.7083 14.7992 16.6319 14.6269 16.4791 14.4792L14.5179 12.518C14.3671 12.3671 14.1932 12.2917 13.9962 12.2917C13.7992 12.2917 13.6269 12.3681 13.4791 12.5208C13.3264 12.6736 13.25 12.8507 13.25 13.0521C13.25 13.2535 13.3264 13.4306 13.4791 13.5833L14.125 14.25H3.74998C3.53748 14.25 3.35935 14.3215 3.2156 14.4644C3.07185 14.6073 2.99998 14.7844 2.99998 14.9956C2.99998 15.2069 3.07185 15.3854 3.2156 15.5312C3.35935 15.6771 3.53748 15.75 3.74998 15.75H14.125L13.4791 16.4167C13.3264 16.5694 13.25 16.7465 13.25 16.9479C13.25 17.1493 13.3264 17.3264 13.4791 17.4792C13.6319 17.6319 13.8068 17.7083 14.0038 17.7083C14.2007 17.7083 14.3731 17.6319 14.5208 17.4792ZM14.875 11C15.1875 11 15.4531 10.8906 15.6719 10.6719C15.8906 10.4531 16 10.1875 16 9.875V2.125C16 1.8125 15.8906 1.54688 15.6719 1.32812C15.4531 1.10938 15.1875 1 14.875 1H5.12498C4.81248 1 4.54685 1.10938 4.3281 1.32812C4.10935 1.54688 3.99998 1.8125 3.99998 2.125V9.875C3.99998 10.1875 4.10935 10.4531 4.3281 10.6719C4.54685 10.8906 4.81248 11 5.12498 11H14.875ZM14.5 5.25H10.75V2.5H14.5V5.25ZM9.24998 5.25H5.49998V2.5H9.24998V5.25ZM10.75 9.5V6.75H14.5V9.5H10.75ZM9.24998 9.5H5.49998V6.75H9.24998V9.5Z" fill="#C3CCDD"/>
  </g>
</svg>