<svg xmlns="http://www.w3.org/2000/svg" width="86" height="86" viewBox="0 0 86 86" fill="none">
  <g opacity="0.44">
    <mask id="mask0_653_454" style="mask-type:alpha" maskUnits="userSpaceOnUse" x="0" y="0" width="86" height="86">
      <rect width="86" height="86" transform="matrix(-1 0 0 1 86 0)" fill="#D9D9D9"/>
    </mask>
    <g mask="url(#mask0_653_454)">
      <path d="M62.4395 75.1612L70.8726 66.728C71.5214 66.0793 71.8457 65.3315 71.8457 64.4845C71.8457 63.6375 71.5172 62.8964 70.8603 62.2612L62.4271 53.828C61.7784 53.1793 61.0305 52.8549 60.1836 52.8549C59.3366 52.8549 58.5955 53.1834 57.9603 53.8404C57.3033 54.4973 56.9749 55.2588 56.9749 56.1247C56.9749 56.9907 57.3033 57.7522 57.9603 58.4091L60.7374 61.2758H16.1249C15.2111 61.2758 14.4452 61.583 13.8271 62.1975C13.2089 62.812 12.8999 63.5735 12.8999 64.4819C12.8999 65.3903 13.2089 66.1581 13.8271 66.7852C14.4452 67.4122 15.2111 67.7258 16.1249 67.7258H60.7374L57.9603 70.5924C57.3033 71.2494 56.9749 72.0108 56.9749 72.8768C56.9749 73.7428 57.3033 74.5043 57.9603 75.1612C58.6172 75.8181 59.3692 76.1466 60.2162 76.1466C61.0632 76.1466 61.8042 75.8181 62.4395 75.1612ZM63.9624 47.3008C65.3061 47.3008 66.4483 46.8305 67.3889 45.8898C68.3296 44.9492 68.7999 43.807 68.7999 42.4633V9.13828C68.7999 7.79453 68.3296 6.65234 67.3889 5.71172C66.4483 4.77109 65.3061 4.30078 63.9624 4.30078H22.0374C20.6936 4.30078 19.5514 4.77109 18.6108 5.71172C17.6702 6.65234 17.1999 7.79453 17.1999 9.13828V42.4633C17.1999 43.807 17.6702 44.9492 18.6108 45.8898C19.5514 46.8305 20.6936 47.3008 22.0374 47.3008H63.9624ZM62.3499 22.5758H46.2249V10.7508H62.3499V22.5758ZM39.7749 22.5758H23.6499V10.7508H39.7749V22.5758ZM46.2249 40.8508V29.0258H62.3499V40.8508H46.2249ZM39.7749 40.8508H23.6499V29.0258H39.7749V40.8508Z" fill="#C3CCDD"/>
    </g>
  </g>
</svg>