<svg xmlns="http://www.w3.org/2000/svg" width="20" height="20" viewBox="0 0 20 20" fill="none">
  <mask id="mask0_408_1773" style="mask-type:alpha" maskUnits="userSpaceOnUse" x="0" y="0" width="20" height="20">
    <rect width="20" height="20" fill="#D9D9D9"/>
  </mask>
  <g mask="url(#mask0_408_1773)">
    <path d="M2.5 8.625C2.5 9.66667 2.86458 10.5521 3.59375 11.2812C4.32292 12.0104 5.20833 12.375 6.25 12.375H6.64583L6.10417 11.8333C5.95139 11.6806 5.87153 11.5035 5.86458 11.3021C5.85764 11.1007 5.92724 10.9236 6.07338 10.7708C6.23279 10.6181 6.41435 10.5417 6.61806 10.5417C6.82176 10.5417 6.99768 10.6181 7.14583 10.7708L8.97917 12.6042C9.13194 12.7519 9.20833 12.9242 9.20833 13.1212C9.20833 13.3182 9.13194 13.4931 8.97917 13.6458L7.14583 15.4792C6.99306 15.6319 6.81944 15.7049 6.625 15.6979C6.43056 15.691 6.25694 15.6111 6.10417 15.4583C5.95139 15.3056 5.875 15.1282 5.875 14.9261C5.875 14.7241 5.95139 14.5473 6.10417 14.3958L6.625 13.875H6.25C4.79167 13.875 3.55208 13.3646 2.53125 12.3438C1.51042 11.3229 1 10.0833 1 8.625C1 7.1625 1.50937 5.92187 2.52813 4.90312C3.54688 3.88437 4.7875 3.375 6.25 3.375H8.75C8.9625 3.375 9.14062 3.44645 9.28438 3.58935C9.42813 3.73227 9.5 3.90935 9.5 4.1206C9.5 4.33187 9.42813 4.51042 9.28438 4.65625C9.14062 4.80208 8.9625 4.875 8.75 4.875H6.25C5.2125 4.875 4.32812 5.24063 3.59687 5.97188C2.86562 6.70313 2.5 7.5875 2.5 8.625ZM11.75 15.375C11.5375 15.375 11.3594 15.3031 11.2156 15.1594C11.0719 15.0156 11 14.8375 11 14.625V11.125C11 10.9125 11.0719 10.7344 11.2156 10.5906C11.3594 10.4469 11.5375 10.375 11.75 10.375H17.25C17.4625 10.375 17.6406 10.4469 17.7844 10.5906C17.9281 10.7344 18 10.9125 18 11.125V14.625C18 14.8375 17.9281 15.0156 17.7844 15.1594C17.6406 15.3031 17.4625 15.375 17.25 15.375H11.75ZM11.75 8.375C11.5375 8.375 11.3594 8.30313 11.2156 8.15938C11.0719 8.01563 11 7.8375 11 7.625V4.125C11 3.9125 11.0719 3.73437 11.2156 3.59062C11.3594 3.44687 11.5375 3.375 11.75 3.375H17.25C17.4625 3.375 17.6406 3.44687 17.7844 3.59062C17.9281 3.73437 18 3.9125 18 4.125V7.625C18 7.8375 17.9281 8.01563 17.7844 8.15938C17.6406 8.30313 17.4625 8.375 17.25 8.375H11.75ZM12.5 6.875H16.5V4.875H12.5V6.875Z" fill="#C3CCDD"/>
  </g>
</svg>