<svg xmlns="http://www.w3.org/2000/svg" width="20" height="20" viewBox="0 0 20 20" fill="none">
  <mask id="mask0_408_1768" style="mask-type:alpha" maskUnits="userSpaceOnUse" x="0" y="0" width="20" height="20">
    <rect width="20" height="20" fill="#D9D9D9"/>
  </mask>
  <g mask="url(#mask0_408_1768)">
    <path d="M5.47919 17.4792L3.51798 15.518C3.36712 15.3671 3.29169 15.1932 3.29169 14.9962C3.29169 14.7992 3.36808 14.6269 3.52085 14.4792L5.48206 12.518C5.63292 12.3671 5.80684 12.2917 6.00381 12.2917C6.20078 12.2917 6.37313 12.3681 6.52085 12.5208C6.67363 12.6736 6.75002 12.8507 6.75002 13.0521C6.75002 13.2535 6.67363 13.4306 6.52085 13.5833L5.87502 14.25H16.25C16.4625 14.25 16.6406 14.3215 16.7844 14.4644C16.9281 14.6073 17 14.7844 17 14.9956C17 15.2069 16.9281 15.3854 16.7844 15.5312C16.6406 15.6771 16.4625 15.75 16.25 15.75H5.87502L6.52085 16.4167C6.67363 16.5694 6.75002 16.7465 6.75002 16.9479C6.75002 17.1493 6.67363 17.3264 6.52085 17.4792C6.36808 17.6319 6.1932 17.7083 5.99623 17.7083C5.79926 17.7083 5.62691 17.6319 5.47919 17.4792ZM5.12502 11C4.81252 11 4.5469 10.8906 4.32815 10.6719C4.1094 10.4531 4.00002 10.1875 4.00002 9.875V2.125C4.00002 1.8125 4.1094 1.54688 4.32815 1.32812C4.5469 1.10938 4.81252 1 5.12502 1H14.875C15.1875 1 15.4531 1.10938 15.6719 1.32812C15.8906 1.54688 16 1.8125 16 2.125V9.875C16 10.1875 15.8906 10.4531 15.6719 10.6719C15.4531 10.8906 15.1875 11 14.875 11H5.12502ZM5.50002 5.25H9.25002V2.5H5.50002V5.25ZM10.75 5.25H14.5V2.5H10.75V5.25ZM9.25002 9.5V6.75H5.50002V9.5H9.25002ZM10.75 9.5H14.5V6.75H10.75V9.5Z" fill="#C3CCDD"/>
  </g>
</svg>