<svg xmlns="http://www.w3.org/2000/svg" width="86" height="86" viewBox="0 0 86 86" fill="none">
  <g opacity="0.44">
    <mask id="mask0_408_1678" style="mask-type:alpha" maskUnits="userSpaceOnUse" x="0" y="0" width="86" height="86">
      <rect width="86" height="86" fill="#D9D9D9"/>
    </mask>
    <g mask="url(#mask0_408_1678)">
      <path d="M19.35 77.3998C17.5763 77.3998 16.0578 76.7682 14.7947 75.5051C13.5316 74.242 12.9 72.7235 12.9 70.9498V27.9498C12.9 26.1761 13.5316 24.6576 14.7947 23.3945C16.0578 22.1314 17.5763 21.4998 19.35 21.4998H25.8C25.8 16.7411 27.479 12.6848 30.8369 9.3308C34.1949 5.9768 38.256 4.2998 43.0203 4.2998C47.7846 4.2998 51.8389 5.9768 55.1834 9.3308C58.5278 12.6848 60.2 16.7411 60.2 21.4998H66.65C68.4238 21.4998 69.9422 22.1314 71.2053 23.3945C72.4685 24.6576 73.1 26.1761 73.1 27.9498V70.9498C73.1 72.7235 72.4685 74.242 71.2053 75.5051C69.9422 76.7682 68.4238 77.3998 66.65 77.3998H19.35ZM19.35 70.9498H66.65V27.9498H19.35V70.9498ZM32.25 21.4998H53.75C53.75 18.5137 52.7049 15.9755 50.6146 13.8852C48.5243 11.7949 45.9861 10.7498 43 10.7498C40.0139 10.7498 37.4757 11.7949 35.3854 13.8852C33.2952 15.9755 32.25 18.5137 32.25 21.4998ZM43 51.5998C47.6584 51.5998 51.7493 50.047 55.2729 46.9415C58.7966 43.8359 60.5584 40.4915 60.5584 36.9081C60.5584 36.072 60.2 35.2956 59.4834 34.579C58.7667 33.8623 57.9007 33.504 56.8854 33.504C56.0493 33.504 55.3028 33.7727 54.6459 34.3102C53.9889 34.8477 53.5111 35.5942 53.2125 36.5498C52.5556 38.7595 51.2622 40.5661 49.3323 41.9696C47.4025 43.3731 45.2917 44.0748 43 44.0748C40.7306 44.0748 38.6254 43.3731 36.6844 41.9696C34.7434 40.5661 33.4743 38.7595 32.8771 36.5498C32.6382 35.7137 32.1754 34.997 31.4886 34.3998C30.8018 33.8026 30.0104 33.504 29.1146 33.504C28.0993 33.504 27.2483 33.8361 26.5615 34.5003C25.8747 35.1645 25.5313 35.9672 25.5313 36.9081C25.5313 40.4915 27.2781 43.8359 30.7719 46.9415C34.2656 50.047 38.3417 51.5998 43 51.5998Z" fill="#C3CCDD"/>
    </g>
  </g>
</svg>