<svg xmlns="http://www.w3.org/2000/svg" width="20" height="20" viewBox="0 0 20 20" fill="none">
  <mask id="mask0_619_259" style="mask-type:alpha" maskUnits="userSpaceOnUse" x="0" y="0" width="20" height="20">
    <rect x="0.25" width="17.5" height="17.5" fill="#D9D9D9"/>
  </mask>
  <g mask="url(#mask0_619_259)">
    <path d="M10.7541 13.125C10.2653 13.125 9.85069 12.9562 9.51042 12.6187C9.17014 12.2812 9 11.868 9 11.3791C9 10.8903 9.16877 10.4757 9.50631 10.1354C9.84385 9.79514 10.257 9.625 10.7459 9.625C11.2347 9.625 11.6493 9.79377 11.9896 10.1313C12.3299 10.4688 12.5 10.882 12.5 11.3709C12.5 11.8597 12.3312 12.2743 11.9937 12.6146C11.6562 12.9549 11.243 13.125 10.7541 13.125ZM4.1875 15.75C3.82656 15.75 3.51758 15.6194 3.26055 15.3581C3.00352 15.0968 2.875 14.7899 2.875 14.4375V4.8125C2.875 4.46007 3.00352 4.15321 3.26055 3.89193C3.51758 3.63064 3.82656 3.5 4.1875 3.5H5.5V2.40625C5.5 2.22031 5.56252 2.06445 5.68756 1.93867C5.81261 1.81289 5.96756 1.75 6.1524 1.75C6.33726 1.75 6.49349 1.81289 6.62109 1.93867C6.7487 2.06445 6.8125 2.22031 6.8125 2.40625V3.5H11.1875V2.40625C11.1875 2.22031 11.25 2.06445 11.3751 1.93867C11.5001 1.81289 11.6551 1.75 11.8399 1.75C12.0248 1.75 12.181 1.81289 12.3086 1.93867C12.4362 2.06445 12.5 2.22031 12.5 2.40625V3.5H13.8125C14.1734 3.5 14.4824 3.63064 14.7395 3.89193C14.9965 4.15321 15.125 4.46007 15.125 4.8125V14.4375C15.125 14.7899 14.9965 15.0968 14.7395 15.3581C14.4824 15.6194 14.1734 15.75 13.8125 15.75H4.1875ZM4.1875 14.4375H13.8125V7.875H4.1875V14.4375ZM4.1875 6.5625H13.8125V4.8125H4.1875V6.5625Z" fill="#BFD2F9"/>
  </g>
</svg>