<svg xmlns="http://www.w3.org/2000/svg" width="18" height="18" viewBox="0 0 18 18" fill="none">
  <mask id="mask0_783_600" style="mask-type:alpha" maskUnits="userSpaceOnUse" x="0" y="0" width="18" height="18">
    <rect width="18" height="18" fill="#D9D9D9"/>
  </mask>
  <g mask="url(#mask0_783_600)">
    <path d="M6.08038 14.9255C5.7476 14.9255 5.46344 14.8078 5.22792 14.5722C4.99238 14.3367 4.87461 14.0525 4.87461 13.7197V4.95054H3.97461V3.97556H7.19959V3.16211H10.7996V3.97556H14.0246V4.95054H13.1246V13.7116C13.1246 14.0584 13.008 14.3474 12.7749 14.5786C12.5418 14.8099 12.2564 14.9255 11.9188 14.9255H6.08038ZM12.1496 4.95054H5.84959V13.7197C5.84959 13.7871 5.87123 13.8424 5.9145 13.8856C5.95778 13.9289 6.01307 13.9505 6.08038 13.9505H11.9188C11.9765 13.9505 12.0294 13.9265 12.0775 13.8784C12.1256 13.8303 12.1496 13.7774 12.1496 13.7197V4.95054ZM7.5025 12.6005H8.47748V6.30054H7.5025V12.6005ZM9.5217 12.6005H10.4967V6.30054H9.5217V12.6005Z" fill="#3980FD"/>
  </g>
</svg>