<svg xmlns="http://www.w3.org/2000/svg" width="20" height="20" viewBox="0 0 20 20" fill="none">
  <mask id="mask0_408_1783" style="mask-type:alpha" maskUnits="userSpaceOnUse" x="0" y="0" width="20" height="20">
    <rect width="20" height="20" fill="#D9D9D9"/>
  </mask>
  <g mask="url(#mask0_408_1783)">
    <path d="M9.5 14C9.69811 14 9.89347 13.9757 10.0861 13.9271C10.2787 13.8785 10.4653 13.8056 10.6458 13.7083L11.9583 15C12.1111 15.1528 12.2847 15.2292 12.4792 15.2292C12.6736 15.2292 12.8472 15.1528 13 15C13.1528 14.8472 13.2292 14.6736 13.2292 14.4792C13.2292 14.2847 13.1528 14.1111 13 13.9583L11.7083 12.6458C11.8056 12.4653 11.8785 12.281 11.9271 12.093C11.9757 11.9049 12 11.7142 12 11.5208C12 10.8087 11.7604 10.207 11.2812 9.71588C10.8021 9.22474 10.2083 8.97917 9.5 8.97917C8.79167 8.97917 8.19792 9.2265 7.71875 9.72117C7.23958 10.2158 7 10.8131 7 11.5128C7 12.2126 7.24155 12.8021 7.72465 13.2812C8.20773 13.7604 8.79951 14 9.5 14ZM9.5 12.5C9.22222 12.5 8.98611 12.4048 8.79167 12.2144C8.59722 12.024 8.5 11.7928 8.5 11.5208C8.5 11.2373 8.59722 10.9962 8.79167 10.7978C8.98611 10.5993 9.22222 10.5 9.5 10.5C9.77778 10.5 10.0139 10.5993 10.2083 10.7978C10.4028 10.9962 10.5 11.2373 10.5 11.5208C10.5 11.7928 10.4028 12.024 10.2083 12.2144C10.0139 12.4048 9.77778 12.5 9.5 12.5ZM5.4941 18C5.08137 18 4.72917 17.8531 4.4375 17.5594C4.14583 17.2656 4 16.9125 4 16.5V3.5C4 3.0875 4.14687 2.73438 4.44062 2.44063C4.73437 2.14688 5.0875 2 5.5 2H11.375C11.5725 2 11.7608 2.03472 11.9398 2.10417C12.1188 2.17361 12.2847 2.28472 12.4375 2.4375L15.5625 5.5625C15.7153 5.71528 15.8264 5.88117 15.8958 6.06019C15.9653 6.2392 16 6.42747 16 6.625V16.5C16 16.9125 15.853 17.2656 15.5591 17.5594C15.2652 17.8531 14.9119 18 14.4992 18H5.4941ZM11 6.25V3.5H5.5V16.5H14.5V7H11.75C11.5375 7 11.3594 6.92813 11.2156 6.78438C11.0719 6.64063 11 6.4625 11 6.25Z" fill="#C3CCDD"/>
  </g>
</svg>