<svg xmlns="http://www.w3.org/2000/svg" width="20" height="20" viewBox="0 0 20 20" fill="none">
  <mask id="mask0_408_1793" style="mask-type:alpha" maskUnits="userSpaceOnUse" x="0" y="0" width="20" height="20">
    <rect width="20" height="20" fill="#D9D9D9"/>
  </mask>
  <g mask="url(#mask0_408_1793)">
    <path d="M13 12C12.3056 12 11.7153 11.7569 11.2292 11.2708C10.7431 10.7847 10.5 10.1944 10.5 9.5C10.5 8.80556 10.7431 8.21528 11.2292 7.72917C11.7153 7.24306 12.3056 7 13 7C13.6944 7 14.2847 7.24306 14.7708 7.72917C15.2569 8.21528 15.5 8.80556 15.5 9.5C15.5 10.1944 15.2569 10.7847 14.7708 11.2708C14.2847 11.7569 13.6944 12 13 12ZM8.75 17C8.5375 17 8.35938 16.9281 8.21563 16.7844C8.07188 16.6406 8 16.4625 8 16.25V15.6875C8 15.2986 8.10069 14.9444 8.30208 14.625C8.50347 14.3056 8.77083 14.0625 9.10417 13.8958C9.70139 13.6042 10.3264 13.3819 10.9792 13.2292C11.6319 13.0764 12.3056 13 13 13C13.6944 13 14.3681 13.0764 15.0208 13.2292C15.6736 13.3819 16.2986 13.6042 16.8958 13.8958C17.2292 14.0625 17.4965 14.3056 17.6979 14.625C17.8993 14.9444 18 15.2986 18 15.6875V16.25C18 16.4625 17.9281 16.6406 17.7844 16.7844C17.6406 16.9281 17.4625 17 17.25 17H8.75ZM9.52083 15.5H16.4792C16.0625 15.1806 15.5625 14.934 14.9792 14.7604C14.3958 14.5868 13.7361 14.5 13 14.5C12.2639 14.5 11.6042 14.5868 11.0208 14.7604C10.4375 14.934 9.9375 15.1806 9.52083 15.5ZM13 10.5C13.2833 10.5 13.5208 10.4042 13.7125 10.2125C13.9042 10.0208 14 9.78333 14 9.5C14 9.21667 13.9042 8.97917 13.7125 8.7875C13.5208 8.59583 13.2833 8.5 13 8.5C12.7167 8.5 12.4792 8.59583 12.2875 8.7875C12.0958 8.97917 12 9.21667 12 9.5C12 9.78333 12.0958 10.0208 12.2875 10.2125C12.4792 10.4042 12.7167 10.5 13 10.5ZM8.25083 11.75H3.7559C3.54363 11.75 3.36458 11.6785 3.21875 11.5356C3.07292 11.3927 3 11.2156 3 11.0044C3 10.7931 3.07179 10.6146 3.21537 10.4688C3.35897 10.3229 3.5369 10.25 3.74917 10.25H8.2441C8.45637 10.25 8.63542 10.3215 8.78125 10.4644C8.92708 10.6073 9 10.7844 9 10.9956C9 11.2069 8.92821 11.3854 8.78463 11.5312C8.64103 11.6771 8.4631 11.75 8.25083 11.75ZM11.2505 5.5H3.75602C3.54367 5.5 3.36458 5.42855 3.21875 5.28565C3.07292 5.14273 3 4.96565 3 4.7544C3 4.54313 3.07182 4.36458 3.21546 4.21875C3.35911 4.07292 3.53711 4 3.74946 4H11.244C11.4563 4 11.6354 4.07145 11.7812 4.21435C11.9271 4.35727 12 4.53435 12 4.7456C12 4.95687 11.9282 5.13542 11.7845 5.28125C11.6409 5.42708 11.4629 5.5 11.2505 5.5ZM9.10417 8.625H3.7536C3.54008 8.625 3.3611 8.55355 3.21667 8.41065C3.07222 8.26773 3 8.09065 3 7.8794C3 7.66813 3.07232 7.48958 3.21696 7.34375C3.3616 7.19792 3.54082 7.125 3.75463 7.125H9.79167C9.625 7.34722 9.48532 7.58179 9.37262 7.82871C9.25994 8.07563 9.17046 8.34106 9.10417 8.625Z" fill="#C3CCDD"/>
  </g>
</svg>