<svg xmlns="http://www.w3.org/2000/svg" width="20" height="20" viewBox="0 0 20 20" fill="none">
  <mask id="mask0_408_1753" style="mask-type:alpha" maskUnits="userSpaceOnUse" x="0" y="0" width="20" height="20">
    <rect width="20" height="20" fill="#D9D9D9"/>
  </mask>
  <g mask="url(#mask0_408_1753)">
    <path d="M3.75 14C3.5375 14 3.35938 13.9285 3.21563 13.7856C3.07188 13.6427 3 13.4656 3 13.2544C3 13.0431 3.07188 12.8646 3.21563 12.7188C3.35938 12.5729 3.5375 12.5 3.75 12.5H13.25C13.4625 12.5 13.6406 12.5715 13.7844 12.7144C13.9281 12.8573 14 13.0344 14 13.2456C14 13.4569 13.9281 13.6354 13.7844 13.7812C13.6406 13.9271 13.4625 14 13.25 14H3.75ZM5.25 10.75C5.0375 10.75 4.85938 10.6785 4.71563 10.5356C4.57188 10.3927 4.5 10.2156 4.5 10.0044C4.5 9.79313 4.57188 9.61458 4.71563 9.46875C4.85938 9.32292 5.0375 9.25 5.25 9.25H14.75C14.9625 9.25 15.1406 9.32145 15.2844 9.46435C15.4281 9.60727 15.5 9.78435 15.5 9.9956C15.5 10.2069 15.4281 10.3854 15.2844 10.5312C15.1406 10.6771 14.9625 10.75 14.75 10.75H5.25ZM6.75 7.5C6.5375 7.5 6.35938 7.42855 6.21563 7.28565C6.07188 7.14273 6 6.96565 6 6.7544C6 6.54313 6.07188 6.36458 6.21563 6.21875C6.35938 6.07292 6.5375 6 6.75 6H16.25C16.4625 6 16.6406 6.07145 16.7844 6.21435C16.9281 6.35727 17 6.53435 17 6.7456C17 6.95687 16.9281 7.13542 16.7844 7.28125C16.6406 7.42708 16.4625 7.5 16.25 7.5H6.75Z" fill="#C3CCDD"/>
  </g>
</svg>