<svg xmlns="http://www.w3.org/2000/svg" width="20" height="20" viewBox="0 0 20 20" fill="none">
  <mask id="mask0_408_1806" style="mask-type:alpha" maskUnits="userSpaceOnUse" x="0" y="0" width="20" height="20">
    <rect width="20" height="20" fill="#D9D9D9"/>
  </mask>
  <g mask="url(#mask0_408_1806)">
    <path d="M9.02084 18C8.84028 18 8.67709 17.9444 8.53125 17.8333C8.38542 17.7222 8.29861 17.5764 8.27084 17.3958L7.9375 15.625C7.61806 15.5 7.30903 15.3542 7.01042 15.1875C6.71181 15.0208 6.43056 14.8264 6.16667 14.6042L4.45834 15.1875C4.29167 15.2431 4.125 15.2396 3.95834 15.1771C3.79167 15.1146 3.65972 15.0069 3.5625 14.8542L2.58334 13.1458C2.48611 12.9931 2.45139 12.8264 2.47917 12.6458C2.50695 12.4653 2.59028 12.3194 2.72917 12.2083L4.08334 11.0208C4.05556 10.8542 4.03472 10.6875 4.02084 10.5208C4.00695 10.3542 4 10.1806 4 10C4 9.81944 4.00695 9.64583 4.02084 9.47917C4.03472 9.3125 4.05556 9.14583 4.08334 8.97917L2.72917 7.79167C2.59028 7.68056 2.50695 7.53472 2.47917 7.35417C2.45139 7.17361 2.48611 7.00694 2.58334 6.85417L3.5625 5.14583C3.65972 4.99306 3.79167 4.88542 3.95834 4.82292C4.125 4.76042 4.29167 4.75694 4.45834 4.8125L6.16667 5.39583C6.43056 5.17361 6.71181 4.97917 7.01042 4.8125C7.30903 4.64583 7.61806 4.5 7.9375 4.375L8.27084 2.60417C8.29861 2.42361 8.38542 2.27778 8.53125 2.16667C8.67709 2.05556 8.84028 2 9.02084 2H10.9792C11.1597 2 11.3229 2.05556 11.4688 2.16667C11.6146 2.27778 11.7014 2.42361 11.7292 2.60417L12.0625 4.375C12.3819 4.5 12.691 4.64583 12.9896 4.8125C13.2882 4.97917 13.5694 5.17361 13.8333 5.39583L15.5417 4.8125C15.7083 4.75694 15.875 4.76042 16.0417 4.82292C16.2083 4.88542 16.3403 4.99306 16.4375 5.14583L17.4167 6.85417C17.5139 7.00694 17.5486 7.17361 17.5208 7.35417C17.4931 7.53472 17.4097 7.68056 17.2708 7.79167L15.9167 8.97917C15.9444 9.14583 15.9653 9.3125 15.9792 9.47917C15.9931 9.64583 16 9.81944 16 10C16 10.1806 15.9931 10.3542 15.9792 10.5208C15.9653 10.6875 15.9444 10.8542 15.9167 11.0208L17.2708 12.2083C17.4097 12.3194 17.4931 12.4653 17.5208 12.6458C17.5486 12.8264 17.5139 12.9931 17.4167 13.1458L16.4375 14.8542C16.3403 15.0069 16.2083 15.1146 16.0417 15.1771C15.875 15.2396 15.7083 15.2431 15.5417 15.1875L13.8333 14.6042C13.5694 14.8264 13.2882 15.0208 12.9896 15.1875C12.691 15.3542 12.3819 15.5 12.0625 15.625L11.7292 17.3958C11.7014 17.5764 11.6146 17.7222 11.4688 17.8333C11.3229 17.9444 11.1597 18 10.9792 18H9.02084ZM9.625 16.5H10.375L10.7708 14.4375C11.2986 14.3403 11.7917 14.1597 12.25 13.8958C12.7083 13.6319 13.1042 13.2986 13.4375 12.8958L15.4375 13.5625L15.8125 12.9375L14.2292 11.5417C14.3125 11.3056 14.3785 11.059 14.4271 10.8021C14.4757 10.5451 14.5 10.2778 14.5 10C14.5 9.72222 14.4757 9.45486 14.4271 9.19792C14.3785 8.94097 14.3125 8.69444 14.2292 8.45833L15.8125 7.0625L15.4375 6.4375L13.4375 7.10417C13.1042 6.70139 12.7083 6.36806 12.25 6.10417C11.7917 5.84028 11.2986 5.65972 10.7708 5.5625L10.375 3.5H9.625L9.22917 5.5625C8.70139 5.65972 8.20834 5.84028 7.75 6.10417C7.29167 6.36806 6.89584 6.70139 6.5625 7.10417L4.5625 6.4375L4.1875 7.0625L5.77084 8.45833C5.6875 8.69444 5.62153 8.94097 5.57292 9.19792C5.52431 9.45486 5.5 9.72222 5.5 10C5.5 10.2778 5.52431 10.5451 5.57292 10.8021C5.62153 11.059 5.6875 11.3056 5.77084 11.5417L4.1875 12.9375L4.5625 13.5625L6.5625 12.8958C6.89584 13.2986 7.29167 13.6319 7.75 13.8958C8.20834 14.1597 8.70139 14.3403 9.22917 14.4375L9.625 16.5ZM10 13C10.8333 13 11.5417 12.7083 12.125 12.125C12.7083 11.5417 13 10.8333 13 10C13 9.16667 12.7083 8.45833 12.125 7.875C11.5417 7.29167 10.8333 7 10 7C9.16667 7 8.45834 7.29167 7.875 7.875C7.29167 8.45833 7 9.16667 7 10C7 10.8333 7.29167 11.5417 7.875 12.125C8.45834 12.7083 9.16667 13 10 13Z" fill="#C3CCDD"/>
  </g>
</svg>