<svg xmlns="http://www.w3.org/2000/svg" width="20" height="20" viewBox="0 0 20 20" fill="none">
  <mask id="mask0_408_1798" style="mask-type:alpha" maskUnits="userSpaceOnUse" x="0" y="0" width="20" height="20">
    <rect width="20" height="20" fill="#D9D9D9"/>
  </mask>
  <g mask="url(#mask0_408_1798)">
    <path d="M14.5 10.7292L16 12.2292V16.5C16 16.9125 15.8531 17.2656 15.5594 17.5594C15.2656 17.8531 14.9125 18 14.5 18H3.5C3.0875 18 2.73438 17.8531 2.44063 17.5594C2.14688 17.2656 2 16.9125 2 16.5V5.5C2 5.0875 2.14688 4.73438 2.44063 4.44063C2.73438 4.14688 3.0875 4 3.5 4H7.72917C7.65972 4.23611 7.60417 4.47569 7.5625 4.71875C7.52083 4.96181 7.5 5.22222 7.5 5.5H3.5V16.5H14.5V10.7292ZM15.4375 7.375L16.9792 8.97917C17.1319 9.13194 17.2083 9.30556 17.2083 9.5C17.2083 9.69444 17.1319 9.86806 16.9792 10.0208C16.8264 10.1736 16.6493 10.25 16.4479 10.25C16.2465 10.25 16.0694 10.1736 15.9167 10.0208L14.375 8.4375C14.0972 8.63194 13.8028 8.77431 13.4917 8.86458C13.1806 8.95486 12.85 9 12.5 9C11.5278 9 10.7014 8.65972 10.0208 7.97917C9.34028 7.29861 9 6.47222 9 5.5C9 4.52778 9.34028 3.70139 10.0208 3.02083C10.7014 2.34028 11.5278 2 12.5 2C13.4722 2 14.2986 2.34028 14.9792 3.02083C15.6597 3.70139 16 4.52778 16 5.5C16 5.83333 15.9549 6.15972 15.8646 6.47917C15.7743 6.79861 15.6319 7.09722 15.4375 7.375ZM12.4953 7.5C13.054 7.5 13.5278 7.30712 13.9167 6.92135C14.3056 6.5356 14.5 6.06338 14.5 5.50469C14.5 4.94601 14.3071 4.47222 13.9214 4.08333C13.5356 3.69444 13.0634 3.5 12.5047 3.5C11.946 3.5 11.4722 3.69288 11.0833 4.07865C10.6944 4.4644 10.5 4.93662 10.5 5.49531C10.5 6.05399 10.6929 6.52778 11.0786 6.91667C11.4644 7.30556 11.9366 7.5 12.4953 7.5ZM3.5 16.5V5.5V10.5V10.25V16.5Z" fill="#C3CCDD"/>
  </g>
</svg>