<svg xmlns="http://www.w3.org/2000/svg" width="18" height="18" viewBox="0 0 18 18" fill="none">
  <mask id="mask0_408_1419" style="mask-type:alpha" maskUnits="userSpaceOnUse" x="0" y="0" width="18" height="18">
    <rect id="arrow" x="0.25" y="0.5" width="17.5" height="17.5" fill="#D9D9D9"/>
  </mask>
  <g mask="url(#mask0_408_1419)">
    <path d="M9.00001 11.4618C8.91898 11.4618 8.84404 11.4486 8.77519 11.4223C8.70632 11.396 8.63948 11.3504 8.57467 11.2856L5.05035 7.76128C4.93288 7.64381 4.87415 7.50203 4.87415 7.33594C4.87415 7.16985 4.93288 7.02807 5.05035 6.9106C5.16783 6.79312 5.31164 6.73438 5.48178 6.73438C5.65192 6.73438 5.79572 6.79312 5.91319 6.9106L9.00001 9.99742L12.0868 6.9106C12.2043 6.79312 12.3461 6.73438 12.5122 6.73438C12.6782 6.73438 12.82 6.79312 12.9375 6.9106C13.055 7.02807 13.1137 7.17187 13.1137 7.34201C13.1137 7.51215 13.055 7.65596 12.9375 7.77344L9.42535 11.2856C9.36054 11.3504 9.2937 11.396 9.22483 11.4223C9.15597 11.4486 9.08103 11.4618 9.00001 11.4618Z" fill="#3D5179"/>
  </g>
</svg>