<svg width="20" height="20" viewBox="0 0 20 20" fill="none" xmlns="http://www.w3.org/2000/svg">
<path d="M9.55933 17.7072C4.9687 17.7072 1.2312 14.068 1.2312 9.59802C1.2312 5.12804 4.9687 1.48877 9.55933 1.48877C14.15 1.48877 17.8875 5.12804 17.8875 9.59802C17.8875 14.068 14.15 17.7072 9.55933 17.7072ZM9.55933 2.67549C5.63495 2.67549 2.44995 5.78469 2.44995 9.59802C2.44995 13.4113 5.63495 16.5205 9.55933 16.5205C13.4837 16.5205 16.6687 13.4113 16.6687 9.59802C16.6687 5.78469 13.4837 2.67549 9.55933 2.67549Z" fill="#3D5179"/>
<path d="M18.0905 18.4985C17.9361 18.4985 17.7817 18.4432 17.6599 18.3245L16.0349 16.7422C15.7992 16.5128 15.7992 16.133 16.0349 15.9036C16.2705 15.6741 16.6605 15.6741 16.8961 15.9036L18.5211 17.4859C18.7567 17.7153 18.7567 18.0951 18.5211 18.3245C18.3992 18.4432 18.2449 18.4985 18.0905 18.4985Z" fill="#3D5179"/>
</svg>
